<svg xmlns="http://www.w3.org/2000/svg" width="1650" height="1497" viewBox="0 0 1650 1497" version="1.1"><path d="M 47 21 L 47 28 824.500 28 L 1602 28 1602 21 L 1602 14 824.500 14 L 47 14 47 21 M 34.250 29.813 L 31 30.127 31 38.063 L 31 46 38 46 L 45 46 45 38.105 L 45 30.210 41.250 29.855 C 39.188 29.660, 36.038 29.641, 34.250 29.813 M 1603.435 31.309 C 1603.139 32.080, 1603.033 35.588, 1603.199 39.105 L 1603.500 45.500 1610.500 45.500 L 1617.500 45.500 1617.500 38 L 1617.500 30.500 1610.736 30.204 C 1605.651 29.981, 1603.839 30.256, 1603.435 31.309 M 20.250 47.728 L 15 48.105 15 748.552 L 15 1449 23 1449 L 31 1449 31 1188 C 31 1014.863, 30.664 927, 30.001 927 C 29.338 927, 28.918 779.256, 28.751 487.264 C 28.528 97.211, 28.331 47.517, 27 47.440 C 26.175 47.391, 23.137 47.521, 20.250 47.728 M 64.906 48 C 64.854 48.275, 64.678 51.200, 64.514 54.500 C 64.350 57.800, 64.167 61.063, 64.108 61.750 C 64.031 62.643, 61.576 63, 55.500 63 L 47 63 47.147 463.250 C 47.228 683.388, 47.565 991.750, 47.897 1148.500 L 48.500 1433.500 55.472 1433.801 C 59.490 1433.974, 62.768 1434.610, 63.207 1435.301 C 63.626 1435.960, 63.976 1439.313, 63.985 1442.750 L 64 1449 823 1449.150 C 1240.450 1449.233, 1582.563 1449.345, 1583.250 1449.400 C 1584.082 1449.467, 1584.587 1447.662, 1584.759 1444 C 1585.249 1433.614, 1584.870 1434, 1594.554 1434 L 1603.070 1434 1602.452 749.750 C 1602.112 373.412, 1601.661 64.938, 1601.449 64.250 C 1601.188 63.406, 1598.788 63, 1594.050 63 C 1586.109 63, 1586.249 63.165, 1585.759 53.247 L 1585.500 47.994 825.250 47.747 C 407.112 47.611, 64.958 47.725, 64.906 48 M 1619.995 47.833 C 1618.612 48.297, 1618.617 927, 1620 927 C 1620.664 927, 1621 1014.667, 1621 1188 L 1621 1449 1627.834 1449 L 1634.668 1449 1635.334 1057.334 C 1636.358 455.175, 1636.195 49.238, 1634.928 48.455 C 1633.804 47.761, 1621.713 47.257, 1619.995 47.833 M 80.301 77.793 C 79.610 78.232, 78.974 81.510, 78.801 85.528 L 78.500 92.500 71 93 L 63.500 93.500 62.714 746.500 C 62.281 1105.650, 62.177 1400.513, 62.483 1401.750 C 63.004 1403.863, 63.555 1404, 71.519 1404 L 80 1404 80 1410.800 C 80 1414.756, 80.502 1418.102, 81.200 1418.800 C 82.131 1419.731, 248.839 1419.997, 825.450 1419.985 C 1234.127 1419.976, 1569.040 1419.626, 1569.699 1419.207 C 1570.390 1418.768, 1571.026 1415.490, 1571.199 1411.472 L 1571.500 1404.500 1579 1404 L 1586.500 1403.500 1587.103 1135.500 C 1587.940 763.043, 1588.126 96.493, 1587.393 94.582 C 1586.906 93.313, 1585.124 93, 1578.393 93 L 1570 93 1570 86.200 C 1570 82.244, 1569.498 78.898, 1568.800 78.200 C 1567.869 77.269, 1401.161 77.003, 824.550 77.015 C 415.872 77.024, 80.960 77.374, 80.301 77.793 M 32.417 1452.355 C 32.131 1453.101, 32.033 1456.588, 32.199 1460.105 L 32.500 1466.500 39.250 1466.796 L 46 1467.091 46.158 1464.296 C 46.338 1461.130, 46.324 1455.364, 46.130 1452.750 C 46.020 1451.275, 44.973 1451, 39.469 1451 C 34.895 1451, 32.781 1451.406, 32.417 1452.355 M 1605 1459 L 1605 1467 1612 1467 L 1619 1467 1619 1459 L 1619 1451 1612 1451 L 1605 1451 1605 1459 M 48 1476 L 48 1483 825.500 1483 L 1603 1483 1603 1476 L 1603 1469 825.500 1469 L 48 1469 48 1476" stroke="none" fill="#0e0e0e" fill-rule="evenodd"/></svg>