<svg xmlns="http://www.w3.org/2000/svg" width="1592" height="1458" viewBox="0 0 1592 1458" version="1.1"><path d="M 1340 988 L 1340 1020 1356 1020 L 1372 1020 1372 1052 L 1372 1084 1388 1084 L 1404 1084 1404 1100 L 1404 1116 1420 1116 L 1436 1116 1436 1148 L 1436 1180 1452 1180 L 1468 1180 1468 1132 L 1468 1084 1452 1084 L 1436 1084 1436 1052 L 1436 1020 1420 1020 L 1404 1020 1404 988 L 1404 956 1372 956 L 1340 956 1340 988 M 1148 1148 L 1148 1180 1116 1180 L 1084 1180 1084 1196 L 1084 1212 1068 1212 L 1052 1212 1052 1228 L 1052 1244 1068 1244 L 1084 1244 1084 1260 L 1084 1276 1068 1276 L 1052 1276 1052 1292 L 1052 1308 1068 1308 L 1084 1308 1084 1324 L 1084 1340 1100 1340 L 1116 1340 1116 1324 L 1116 1308 1132 1308 L 1148 1308 1148 1324 L 1148 1340 1164 1340 L 1180 1340 1180 1324 L 1180 1308 1164 1308 L 1148 1308 1148 1292 L 1148 1276 1180 1276 L 1212 1276 1212 1212 L 1212 1148 1196 1148 L 1180 1148 1180 1132 L 1180 1116 1164 1116 L 1148 1116 1148 1148 M 1084 1228 L 1084 1244 1100 1244 L 1116 1244 1116 1228 L 1116 1212 1100 1212 L 1084 1212 1084 1228 M 188 1340 L 188 1404 204 1404 L 220 1404 220 1420 L 220 1436 252 1436 L 284 1436 284 1404 L 284 1372 268 1372 L 252 1372 252 1356 L 252 1340 236 1340 L 220 1340 220 1308 L 220 1276 204 1276 L 188 1276 188 1340 M 1084 1292 L 1084 1308 1100 1308 L 1116 1308 1116 1292 L 1116 1276 1100 1276 L 1084 1276 1084 1292 M 1468 1356 L 1468 1372 1484 1372 L 1500 1372 1500 1356 L 1500 1340 1484 1340 L 1468 1340 1468 1356 M 1500 1420 L 1500 1436 1516 1436 L 1532 1436 1532 1420 L 1532 1404 1516 1404 L 1500 1404 1500 1420" stroke="none" fill="#f8f8f8" fill-rule="evenodd"/><path d="M 572 108 L 572 156 556 156 L 540 156 540 220 L 540 284 524 284 L 508 284 508 268 L 508 252 492 252 L 476 252 476 364 L 476 476 460 476 L 444 476 444 460 L 444 444 428 444 L 412 444 412 412 L 412 380 396 380 L 380 380 380 348 L 380 316 364 316 L 348 316 348 284 L 348 252 332 252 L 316 252 316 236 L 316 220 300 220 L 284 220 284 236 L 284 252 300 252 L 316 252 316 284 L 316 316 332 316 L 348 316 348 348 L 348 380 364 380 L 380 380 380 412 L 380 444 364 444 L 348 444 348 492 L 348 540 364 540 L 380 540 380 588 L 380 636 364 636 L 348 636 348 604 L 348 572 332 572 L 316 572 316 556 L 316 540 300 540 L 284 540 284 524 L 284 508 300 508 L 316 508 316 444 L 316 380 300 380 L 284 380 284 412 L 284 444 252 444 L 220 444 220 460 L 220 476 204 476 L 188 476 188 460 L 188 444 172 444 L 156 444 156 428 L 156 412 140 412 L 124 412 124 396 L 124 380 108 380 L 92 380 92 396 L 92 412 76 412 L 60 412 60 428 L 60 444 76 444 L 92 444 92 460 L 92 476 108 476 L 124 476 124 508 L 124 540 140 540 L 156 540 156 588 L 156 636 172 636 L 188 636 188 652 L 188 668 156 668 L 124 668 124 652 L 124 636 108 636 L 92 636 92 620 L 92 604 76 604 L 60 604 60 636 L 60 668 76 668 L 92 668 92 700 L 92 732 108 732 L 124 732 124 764 L 124 796 140 796 L 156 796 156 828 L 156 860 172 860 L 188 860 188 892 L 188 924 140 924 L 92 924 92 908 L 92 892 60 892 L 28 892 28 908 L 28 924 44 924 L 60 924 60 940 L 60 956 76 956 L 92 956 92 972 L 92 988 108 988 L 124 988 124 1004 L 124 1020 140 1020 L 156 1020 156 1036 L 156 1052 140 1052 L 124 1052 124 1068 L 124 1084 156 1084 L 188 1084 188 1116 L 188 1148 236 1148 L 284 1148 284 1164 L 284 1180 316 1180 L 348 1180 348 1196 L 348 1212 364 1212 L 380 1212 380 1228 L 380 1244 396 1244 L 412 1244 412 1228 L 412 1212 428 1212 L 444 1212 444 1228 L 444 1244 460 1244 L 476 1244 476 1228 L 476 1212 492 1212 L 508 1212 508 1228 L 508 1244 524 1244 L 540 1244 540 1228 L 540 1212 556 1212 L 572 1212 572 1228 L 572 1244 588 1244 L 604 1244 604 1228 L 604 1212 620 1212 L 636 1212 636 1196 L 636 1180 652 1180 L 668 1180 668 1196 L 668 1212 684 1212 L 700 1212 700 1196 L 700 1180 716 1180 L 732 1180 732 1164 L 732 1148 748 1148 L 764 1148 764 1164 L 764 1180 780 1180 L 796 1180 796 1164 L 796 1148 812 1148 L 828 1148 828 1132 L 828 1116 844 1116 L 860 1116 860 1132 L 860 1148 876 1148 L 892 1148 892 1132 L 892 1116 908 1116 L 924 1116 924 1100 L 924 1084 940 1084 L 956 1084 956 1100 L 956 1116 972 1116 L 988 1116 988 1100 L 988 1084 1004 1084 L 1020 1084 1020 1068 L 1020 1052 1004 1052 L 988 1052 988 1036 L 988 1020 1004 1020 L 1020 1020 1020 1004 L 1020 988 1036 988 L 1052 988 1052 972 L 1052 956 1068 956 L 1084 956 1084 924 L 1084 892 1100 892 L 1116 892 1116 860 L 1116 828 1132 828 L 1148 828 1148 844 L 1148 860 1164 860 L 1180 860 1180 876 L 1180 892 1196 892 L 1212 892 1212 876 L 1212 860 1228 860 L 1244 860 1244 876 L 1244 892 1260 892 L 1276 892 1276 876 L 1276 860 1260 860 L 1244 860 1244 844 L 1244 828 1260 828 L 1276 828 1276 812 L 1276 796 1260 796 L 1244 796 1244 812 L 1244 828 1228 828 L 1212 828 1212 844 L 1212 860 1196 860 L 1180 860 1180 844 L 1180 828 1164 828 L 1148 828 1148 812 L 1148 796 1164 796 L 1180 796 1180 732 L 1180 668 1196 668 L 1212 668 1212 636 L 1212 604 1228 604 L 1244 604 1244 572 L 1244 540 1260 540 L 1276 540 1276 492 L 1276 444 1260 444 L 1244 444 1244 412 L 1244 380 1228 380 L 1212 380 1212 396 L 1212 412 1196 412 L 1180 412 1180 428 L 1180 444 1164 444 L 1148 444 1148 476 L 1148 508 1116 508 L 1084 508 1084 492 L 1084 476 1100 476 L 1116 476 1116 428 L 1116 380 1100 380 L 1084 380 1084 332 L 1084 284 1068 284 L 1052 284 1052 364 L 1052 444 1036 444 L 1020 444 1020 476 L 1020 508 1004 508 L 988 508 988 524 L 988 540 972 540 L 956 540 956 460 L 956 380 972 380 L 988 380 988 364 L 988 348 972 348 L 956 348 956 332 L 956 316 972 316 L 988 316 988 268 L 988 220 972 220 L 956 220 956 268 L 956 316 940 316 L 924 316 924 380 L 924 444 908 444 L 892 444 892 476 L 892 508 876 508 L 860 508 860 476 L 860 444 844 444 L 828 444 828 396 L 828 348 812 348 L 796 348 796 300 L 796 252 780 252 L 764 252 764 204 L 764 156 748 156 L 732 156 732 124 L 732 92 716 92 L 700 92 700 124 L 700 156 684 156 L 668 156 668 172 L 668 188 652 188 L 636 188 636 140 L 636 92 620 92 L 604 92 604 76 L 604 60 588 60 L 572 60 572 108 M 988 124 L 988 156 1004 156 L 1020 156 1020 204 L 1020 252 1036 252 L 1052 252 1052 204 L 1052 156 1036 156 L 1020 156 1020 124 L 1020 92 1004 92 L 988 92 988 124 M 572 252 L 572 348 556 348 L 540 348 540 332 L 540 316 524 316 L 508 316 508 332 L 508 348 524 348 L 540 348 540 364 L 540 380 524 380 L 508 380 508 396 L 508 412 524 412 L 540 412 540 428 L 540 444 524 444 L 508 444 508 460 L 508 476 524 476 L 540 476 540 492 L 540 508 556 508 L 572 508 572 524 L 572 540 556 540 L 540 540 540 556 L 540 572 556 572 L 572 572 572 588 L 572 604 556 604 L 540 604 540 620 L 540 636 556 636 L 572 636 572 668 L 572 700 556 700 L 540 700 540 684 L 540 668 524 668 L 508 668 508 636 L 508 604 492 604 L 476 604 476 572 L 476 540 460 540 L 444 540 444 524 L 444 508 428 508 L 412 508 412 476 L 412 444 396 444 L 380 444 380 476 L 380 508 396 508 L 412 508 412 556 L 412 604 428 604 L 444 604 444 652 L 444 700 460 700 L 476 700 476 764 L 476 828 460 828 L 444 828 444 796 L 444 764 428 764 L 412 764 412 748 L 412 732 396 732 L 380 732 380 700 L 380 668 364 668 L 348 668 348 700 L 348 732 364 732 L 380 732 380 780 L 380 828 364 828 L 348 828 348 812 L 348 796 332 796 L 316 796 316 780 L 316 764 300 764 L 284 764 284 780 L 284 796 268 796 L 252 796 252 780 L 252 764 236 764 L 220 764 220 748 L 220 732 204 732 L 188 732 188 716 L 188 700 172 700 L 156 700 156 732 L 156 764 172 764 L 188 764 188 796 L 188 828 204 828 L 220 828 220 860 L 220 892 236 892 L 252 892 252 908 L 252 924 268 924 L 284 924 284 940 L 284 956 268 956 L 252 956 252 972 L 252 988 268 988 L 284 988 284 1004 L 284 1020 300 1020 L 316 1020 316 1004 L 316 988 332 988 L 348 988 348 1004 L 348 1020 364 1020 L 380 1020 380 1036 L 380 1052 364 1052 L 348 1052 348 1068 L 348 1084 364 1084 L 380 1084 380 1100 L 380 1116 396 1116 L 412 1116 412 1132 L 412 1148 380 1148 L 348 1148 348 1164 L 348 1180 364 1180 L 380 1180 380 1196 L 380 1212 396 1212 L 412 1212 412 1180 L 412 1148 428 1148 L 444 1148 444 1180 L 444 1212 460 1212 L 476 1212 476 1180 L 476 1148 492 1148 L 508 1148 508 1132 L 508 1116 492 1116 L 476 1116 476 1100 L 476 1084 492 1084 L 508 1084 508 1068 L 508 1052 524 1052 L 540 1052 540 1036 L 540 1020 556 1020 L 572 1020 572 1036 L 572 1052 588 1052 L 604 1052 604 1084 L 604 1116 588 1116 L 572 1116 572 1132 L 572 1148 588 1148 L 604 1148 604 1164 L 604 1180 588 1180 L 572 1180 572 1196 L 572 1212 588 1212 L 604 1212 604 1196 L 604 1180 620 1180 L 636 1180 636 1164 L 636 1148 652 1148 L 668 1148 668 1164 L 668 1180 684 1180 L 700 1180 700 1164 L 700 1148 716 1148 L 732 1148 732 1132 L 732 1116 748 1116 L 764 1116 764 1132 L 764 1148 780 1148 L 796 1148 796 1132 L 796 1116 780 1116 L 764 1116 764 1100 L 764 1084 780 1084 L 796 1084 796 1068 L 796 1052 812 1052 L 828 1052 828 1068 L 828 1084 844 1084 L 860 1084 860 1100 L 860 1116 876 1116 L 892 1116 892 1100 L 892 1084 908 1084 L 924 1084 924 1068 L 924 1052 940 1052 L 956 1052 956 1068 L 956 1084 972 1084 L 988 1084 988 1068 L 988 1052 972 1052 L 956 1052 956 1036 L 956 1020 940 1020 L 924 1020 924 1036 L 924 1052 908 1052 L 892 1052 892 1036 L 892 1020 876 1020 L 860 1020 860 1036 L 860 1052 844 1052 L 828 1052 828 1036 L 828 1020 812 1020 L 796 1020 796 1004 L 796 988 812 988 L 828 988 828 972 L 828 956 812 956 L 796 956 796 940 L 796 924 812 924 L 828 924 828 908 L 828 892 812 892 L 796 892 796 876 L 796 860 812 860 L 828 860 828 796 L 828 732 844 732 L 860 732 860 716 L 860 700 876 700 L 892 700 892 684 L 892 668 908 668 L 924 668 924 684 L 924 700 940 700 L 956 700 956 716 L 956 732 940 732 L 924 732 924 748 L 924 764 940 764 L 956 764 956 780 L 956 796 940 796 L 924 796 924 812 L 924 828 940 828 L 956 828 956 844 L 956 860 972 860 L 988 860 988 844 L 988 828 1004 828 L 1020 828 1020 812 L 1020 796 1004 796 L 988 796 988 780 L 988 764 1004 764 L 1020 764 1020 748 L 1020 732 1036 732 L 1052 732 1052 716 L 1052 700 1068 700 L 1084 700 1084 716 L 1084 732 1116 732 L 1148 732 1148 700 L 1148 668 1164 668 L 1180 668 1180 636 L 1180 604 1196 604 L 1212 604 1212 572 L 1212 540 1228 540 L 1244 540 1244 524 L 1244 508 1228 508 L 1212 508 1212 492 L 1212 476 1228 476 L 1244 476 1244 460 L 1244 444 1212 444 L 1180 444 1180 476 L 1180 508 1164 508 L 1148 508 1148 524 L 1148 540 1132 540 L 1116 540 1116 572 L 1116 604 1100 604 L 1084 604 1084 636 L 1084 668 1068 668 L 1052 668 1052 652 L 1052 636 1036 636 L 1020 636 1020 620 L 1020 604 1004 604 L 988 604 988 588 L 988 572 1004 572 L 1020 572 1020 556 L 1020 540 1004 540 L 988 540 988 556 L 988 572 972 572 L 956 572 956 588 L 956 604 972 604 L 988 604 988 620 L 988 636 972 636 L 956 636 956 652 L 956 668 940 668 L 924 668 924 652 L 924 636 908 636 L 892 636 892 620 L 892 604 876 604 L 860 604 860 556 L 860 508 844 508 L 828 508 828 524 L 828 540 812 540 L 796 540 796 460 L 796 380 780 380 L 764 380 764 332 L 764 284 748 284 L 732 284 732 236 L 732 188 716 188 L 700 188 700 284 L 700 380 684 380 L 668 380 668 364 L 668 348 652 348 L 636 348 636 300 L 636 252 620 252 L 604 252 604 204 L 604 156 588 156 L 572 156 572 252 M 252 316 L 252 348 268 348 L 284 348 284 316 L 284 284 268 284 L 252 284 252 316 M 572 364 L 572 380 556 380 L 540 380 540 396 L 540 412 556 412 L 572 412 572 428 L 572 444 556 444 L 540 444 540 460 L 540 476 556 476 L 572 476 572 492 L 572 508 588 508 L 604 508 604 492 L 604 476 588 476 L 572 476 572 460 L 572 444 588 444 L 604 444 604 428 L 604 412 588 412 L 572 412 572 396 L 572 380 588 380 L 604 380 604 364 L 604 348 588 348 L 572 348 572 364 M 252 492 L 252 508 268 508 L 284 508 284 492 L 284 476 268 476 L 252 476 252 492 M 252 556 L 252 572 268 572 L 284 572 284 588 L 284 604 300 604 L 316 604 316 588 L 316 572 300 572 L 284 572 284 556 L 284 540 268 540 L 252 540 252 556 M 572 556 L 572 572 588 572 L 604 572 604 556 L 604 540 588 540 L 572 540 572 556 M 572 620 L 572 636 588 636 L 604 636 604 620 L 604 604 588 604 L 572 604 572 620 M 860 652 L 860 668 876 668 L 892 668 892 652 L 892 636 876 636 L 860 636 860 652 M 988 652 L 988 668 972 668 L 956 668 956 684 L 956 700 972 700 L 988 700 988 716 L 988 732 972 732 L 956 732 956 748 L 956 764 972 764 L 988 764 988 748 L 988 732 1004 732 L 1020 732 1020 716 L 1020 700 1036 700 L 1052 700 1052 684 L 1052 668 1036 668 L 1020 668 1020 652 L 1020 636 1004 636 L 988 636 988 652 M 988 684 L 988 700 1004 700 L 1020 700 1020 684 L 1020 668 1004 668 L 988 668 988 684 M 668 780 L 668 796 684 796 L 700 796 700 780 L 700 764 684 764 L 668 764 668 780 M 956 812 L 956 828 972 828 L 988 828 988 812 L 988 796 972 796 L 956 796 956 812 M 668 908 L 668 988 652 988 L 636 988 636 1052 L 636 1116 620 1116 L 604 1116 604 1132 L 604 1148 620 1148 L 636 1148 636 1132 L 636 1116 652 1116 L 668 1116 668 1132 L 668 1148 684 1148 L 700 1148 700 1132 L 700 1116 716 1116 L 732 1116 732 1100 L 732 1084 748 1084 L 764 1084 764 1068 L 764 1052 780 1052 L 796 1052 796 1036 L 796 1020 780 1020 L 764 1020 764 1004 L 764 988 780 988 L 796 988 796 972 L 796 956 780 956 L 764 956 764 940 L 764 924 780 924 L 796 924 796 908 L 796 892 780 892 L 764 892 764 876 L 764 860 748 860 L 732 860 732 876 L 732 892 716 892 L 700 892 700 860 L 700 828 684 828 L 668 828 668 908 M 476 908 L 476 924 460 924 L 444 924 444 940 L 444 956 428 956 L 412 956 412 940 L 412 924 396 924 L 380 924 380 940 L 380 956 364 956 L 348 956 348 940 L 348 924 332 924 L 316 924 316 940 L 316 956 300 956 L 284 956 284 972 L 284 988 300 988 L 316 988 316 972 L 316 956 332 956 L 348 956 348 972 L 348 988 364 988 L 380 988 380 1004 L 380 1020 396 1020 L 412 1020 412 1036 L 412 1052 396 1052 L 380 1052 380 1068 L 380 1084 396 1084 L 412 1084 412 1100 L 412 1116 428 1116 L 444 1116 444 1132 L 444 1148 460 1148 L 476 1148 476 1132 L 476 1116 460 1116 L 444 1116 444 1100 L 444 1084 460 1084 L 476 1084 476 1068 L 476 1052 492 1052 L 508 1052 508 1036 L 508 1020 524 1020 L 540 1020 540 1004 L 540 988 524 988 L 508 988 508 972 L 508 956 524 956 L 540 956 540 940 L 540 924 524 924 L 508 924 508 908 L 508 892 492 892 L 476 892 476 908 M 732 908 L 732 924 748 924 L 764 924 764 908 L 764 892 748 892 L 732 892 732 908 M 476 940 L 476 956 460 956 L 444 956 444 972 L 444 988 428 988 L 412 988 412 972 L 412 956 396 956 L 380 956 380 972 L 380 988 396 988 L 412 988 412 1004 L 412 1020 428 1020 L 444 1020 444 1036 L 444 1052 428 1052 L 412 1052 412 1068 L 412 1084 428 1084 L 444 1084 444 1068 L 444 1052 460 1052 L 476 1052 476 1036 L 476 1020 492 1020 L 508 1020 508 1004 L 508 988 492 988 L 476 988 476 972 L 476 956 492 956 L 508 956 508 940 L 508 924 492 924 L 476 924 476 940 M 1404 940 L 1404 956 1420 956 L 1436 956 1436 940 L 1436 924 1420 924 L 1404 924 1404 940 M 732 972 L 732 988 748 988 L 764 988 764 972 L 764 956 748 956 L 732 956 732 972 M 444 1004 L 444 1020 460 1020 L 476 1020 476 1004 L 476 988 460 988 L 444 988 444 1004 M 1084 1004 L 1084 1020 1100 1020 L 1116 1020 1116 1036 L 1116 1052 1132 1052 L 1148 1052 1148 1084 L 1148 1116 1164 1116 L 1180 1116 1180 1084 L 1180 1052 1164 1052 L 1148 1052 1148 1036 L 1148 1020 1132 1020 L 1116 1020 1116 1004 L 1116 988 1100 988 L 1084 988 1084 1004 M 860 1068 L 860 1084 876 1084 L 892 1084 892 1068 L 892 1052 876 1052 L 860 1052 860 1068 M 668 1100 L 668 1116 684 1116 L 700 1116 700 1100 L 700 1084 684 1084 L 668 1084 668 1100 M 1468 1100 L 1468 1116 1484 1116 L 1500 1116 1500 1100 L 1500 1084 1484 1084 L 1468 1084 1468 1100 M 1212 1164 L 1212 1180 1228 1180 L 1244 1180 1244 1164 L 1244 1148 1228 1148 L 1212 1148 1212 1164 M 188 1196 L 188 1212 204 1212 L 220 1212 220 1196 L 220 1180 204 1180 L 188 1180 188 1196 M 508 1196 L 508 1212 524 1212 L 540 1212 540 1196 L 540 1180 524 1180 L 508 1180 508 1196 M 1020 1228 L 1020 1244 1036 1244 L 1052 1244 1052 1228 L 1052 1212 1036 1212 L 1020 1212 1020 1228 M 1404 1228 L 1404 1244 1420 1244 L 1436 1244 1436 1228 L 1436 1212 1420 1212 L 1404 1212 1404 1228 M 156 1260 L 156 1276 172 1276 L 188 1276 188 1260 L 188 1244 172 1244 L 156 1244 156 1260 M 924 1260 L 924 1276 956 1276 L 988 1276 988 1260 L 988 1244 956 1244 L 924 1244 924 1260 M 1212 1260 L 1212 1276 1228 1276 L 1244 1276 1244 1260 L 1244 1244 1228 1244 L 1212 1244 1212 1260 M 796 1292 L 796 1308 812 1308 L 828 1308 828 1292 L 828 1276 812 1276 L 796 1276 796 1292 M 252 1324 L 252 1340 284 1340 L 316 1340 316 1324 L 316 1308 284 1308 L 252 1308 252 1324 M 604 1324 L 604 1340 636 1340 L 668 1340 668 1324 L 668 1308 636 1308 L 604 1308 604 1324 M 316 1388 L 316 1404 332 1404 L 348 1404 348 1388 L 348 1372 332 1372 L 316 1372 316 1388" stroke="none" fill="#ff0a06" fill-rule="evenodd"/><path d="M 1148 812 L 1148 828 1132 828 L 1116 828 1116 860 L 1116 892 1100 892 L 1084 892 1084 924 L 1084 956 1068 956 L 1052 956 1052 972 L 1052 988 1036 988 L 1020 988 1020 1004 L 1020 1020 1004 1020 L 988 1020 988 1036 L 988 1052 972 1052 L 956 1052 956 1036 L 956 1020 940 1020 L 924 1020 924 1036 L 924 1052 908 1052 L 892 1052 892 1036 L 892 1020 876 1020 L 860 1020 860 1036 L 860 1052 844 1052 L 828 1052 828 1068 L 828 1084 844 1084 L 860 1084 860 1100 L 860 1116 844 1116 L 828 1116 828 1132 L 828 1148 812 1148 L 796 1148 796 1132 L 796 1116 780 1116 L 764 1116 764 1100 L 764 1084 748 1084 L 732 1084 732 1100 L 732 1116 716 1116 L 700 1116 700 1100 L 700 1084 684 1084 L 668 1084 668 1100 L 668 1116 652 1116 L 636 1116 636 1100 L 636 1084 620 1084 L 604 1084 604 1100 L 604 1116 588 1116 L 572 1116 572 1132 L 572 1148 588 1148 L 604 1148 604 1164 L 604 1180 588 1180 L 572 1180 572 1196 L 572 1212 556 1212 L 540 1212 540 1196 L 540 1180 524 1180 L 508 1180 508 1196 L 508 1212 492 1212 L 476 1212 476 1196 L 476 1180 460 1180 L 444 1180 444 1196 L 444 1212 428 1212 L 412 1212 412 1196 L 412 1180 396 1180 L 380 1180 380 1164 L 380 1148 364 1148 L 348 1148 348 1164 L 348 1180 316 1180 L 284 1180 284 1164 L 284 1148 252 1148 L 220 1148 220 1180 L 220 1212 204 1212 L 188 1212 188 1244 L 188 1276 172 1276 L 156 1276 156 1340 L 156 1404 172 1404 L 188 1404 188 1420 L 188 1436 204 1436 L 220 1436 220 1420 L 220 1404 204 1404 L 188 1404 188 1340 L 188 1276 204 1276 L 220 1276 220 1292 L 220 1308 268 1308 L 316 1308 316 1324 L 316 1340 460 1340 L 604 1340 604 1324 L 604 1308 700 1308 L 796 1308 796 1292 L 796 1276 860 1276 L 924 1276 924 1260 L 924 1244 972 1244 L 1020 1244 1020 1228 L 1020 1212 1052 1212 L 1084 1212 1084 1196 L 1084 1180 1100 1180 L 1116 1180 1116 1164 L 1116 1148 1132 1148 L 1148 1148 1148 1100 L 1148 1052 1164 1052 L 1180 1052 1180 1100 L 1180 1148 1196 1148 L 1212 1148 1212 1116 L 1212 1084 1228 1084 L 1244 1084 1244 1036 L 1244 988 1260 988 L 1276 988 1276 972 L 1276 956 1292 956 L 1308 956 1308 940 L 1308 924 1340 924 L 1372 924 1372 940 L 1372 956 1388 956 L 1404 956 1404 988 L 1404 1020 1420 1020 L 1436 1020 1436 1052 L 1436 1084 1452 1084 L 1468 1084 1468 1036 L 1468 988 1452 988 L 1436 988 1436 972 L 1436 956 1420 956 L 1404 956 1404 924 L 1404 892 1388 892 L 1372 892 1372 876 L 1372 860 1356 860 L 1340 860 1340 844 L 1340 828 1292 828 L 1244 828 1244 812 L 1244 796 1196 796 L 1148 796 1148 812 M 1148 844 L 1148 860 1164 860 L 1180 860 1180 876 L 1180 892 1196 892 L 1212 892 1212 876 L 1212 860 1228 860 L 1244 860 1244 876 L 1244 892 1260 892 L 1276 892 1276 876 L 1276 860 1260 860 L 1244 860 1244 844 L 1244 828 1228 828 L 1212 828 1212 844 L 1212 860 1196 860 L 1180 860 1180 844 L 1180 828 1164 828 L 1148 828 1148 844 M 1084 1004 L 1084 1020 1100 1020 L 1116 1020 1116 1036 L 1116 1052 1132 1052 L 1148 1052 1148 1036 L 1148 1020 1132 1020 L 1116 1020 1116 1004 L 1116 988 1100 988 L 1084 988 1084 1004 M 860 1068 L 860 1084 876 1084 L 892 1084 892 1100 L 892 1116 876 1116 L 860 1116 860 1132 L 860 1148 876 1148 L 892 1148 892 1132 L 892 1116 908 1116 L 924 1116 924 1100 L 924 1084 940 1084 L 956 1084 956 1100 L 956 1116 972 1116 L 988 1116 988 1100 L 988 1084 1004 1084 L 1020 1084 1020 1068 L 1020 1052 1004 1052 L 988 1052 988 1068 L 988 1084 972 1084 L 956 1084 956 1068 L 956 1052 940 1052 L 924 1052 924 1068 L 924 1084 908 1084 L 892 1084 892 1068 L 892 1052 876 1052 L 860 1052 860 1068 M 1308 1068 L 1308 1084 1340 1084 L 1372 1084 1372 1100 L 1372 1116 1388 1116 L 1404 1116 1404 1164 L 1404 1212 1420 1212 L 1436 1212 1436 1164 L 1436 1116 1420 1116 L 1404 1116 1404 1100 L 1404 1084 1388 1084 L 1372 1084 1372 1068 L 1372 1052 1340 1052 L 1308 1052 1308 1068 M 604 1132 L 604 1148 620 1148 L 636 1148 636 1164 L 636 1180 620 1180 L 604 1180 604 1196 L 604 1212 588 1212 L 572 1212 572 1228 L 572 1244 588 1244 L 604 1244 604 1228 L 604 1212 620 1212 L 636 1212 636 1196 L 636 1180 652 1180 L 668 1180 668 1196 L 668 1212 684 1212 L 700 1212 700 1196 L 700 1180 716 1180 L 732 1180 732 1164 L 732 1148 748 1148 L 764 1148 764 1164 L 764 1180 780 1180 L 796 1180 796 1164 L 796 1148 780 1148 L 764 1148 764 1132 L 764 1116 748 1116 L 732 1116 732 1132 L 732 1148 716 1148 L 700 1148 700 1132 L 700 1116 684 1116 L 668 1116 668 1132 L 668 1148 652 1148 L 636 1148 636 1132 L 636 1116 620 1116 L 604 1116 604 1132 M 1468 1180 L 1468 1244 1452 1244 L 1436 1244 1436 1276 L 1436 1308 1452 1308 L 1468 1308 1468 1324 L 1468 1340 1484 1340 L 1500 1340 1500 1372 L 1500 1404 1516 1404 L 1532 1404 1532 1420 L 1532 1436 1548 1436 L 1564 1436 1564 1420 L 1564 1404 1548 1404 L 1532 1404 1532 1372 L 1532 1340 1516 1340 L 1500 1340 1500 1324 L 1500 1308 1484 1308 L 1468 1308 1468 1276 L 1468 1244 1484 1244 L 1500 1244 1500 1180 L 1500 1116 1484 1116 L 1468 1116 1468 1180 M 668 1164 L 668 1180 684 1180 L 700 1180 700 1164 L 700 1148 684 1148 L 668 1148 668 1164 M 348 1196 L 348 1212 364 1212 L 380 1212 380 1228 L 380 1244 396 1244 L 412 1244 412 1228 L 412 1212 396 1212 L 380 1212 380 1196 L 380 1180 364 1180 L 348 1180 348 1196 M 1212 1212 L 1212 1244 1228 1244 L 1244 1244 1244 1212 L 1244 1180 1228 1180 L 1212 1180 1212 1212 M 444 1228 L 444 1244 460 1244 L 476 1244 476 1228 L 476 1212 460 1212 L 444 1212 444 1228 M 508 1228 L 508 1244 524 1244 L 540 1244 540 1228 L 540 1212 524 1212 L 508 1212 508 1228 M 1180 1308 L 1180 1340 1164 1340 L 1148 1340 1148 1356 L 1148 1372 1132 1372 L 1116 1372 1116 1388 L 1116 1404 1084 1404 L 1052 1404 1052 1388 L 1052 1372 1036 1372 L 1020 1372 1020 1356 L 1020 1340 1004 1340 L 988 1340 988 1324 L 988 1308 956 1308 L 924 1308 924 1324 L 924 1340 956 1340 L 988 1340 988 1356 L 988 1372 1004 1372 L 1020 1372 1020 1404 L 1020 1436 1068 1436 L 1116 1436 1116 1420 L 1116 1404 1148 1404 L 1180 1404 1180 1388 L 1180 1372 1196 1372 L 1212 1372 1212 1388 L 1212 1404 1228 1404 L 1244 1404 1244 1420 L 1244 1436 1260 1436 L 1276 1436 1276 1420 L 1276 1404 1308 1404 L 1340 1404 1340 1420 L 1340 1436 1356 1436 L 1372 1436 1372 1420 L 1372 1404 1356 1404 L 1340 1404 1340 1388 L 1340 1372 1292 1372 L 1244 1372 1244 1356 L 1244 1340 1228 1340 L 1212 1340 1212 1308 L 1212 1276 1196 1276 L 1180 1276 1180 1308 M 348 1388 L 348 1404 380 1404 L 412 1404 412 1420 L 412 1436 444 1436 L 476 1436 476 1420 L 476 1404 444 1404 L 412 1404 412 1388 L 412 1372 380 1372 L 348 1372 348 1388" stroke="none" fill="#040404" fill-rule="evenodd"/><path d="M 572 44 L 572 60 588 60 L 604 60 604 76 L 604 92 620 92 L 636 92 636 76 L 636 60 620 60 L 604 60 604 44 L 604 28 588 28 L 572 28 572 44 M 700 76 L 700 92 716 92 L 732 92 732 76 L 732 60 716 60 L 700 60 700 76 M 540 140 L 540 156 556 156 L 572 156 572 252 L 572 348 556 348 L 540 348 540 332 L 540 316 524 316 L 508 316 508 332 L 508 348 524 348 L 540 348 540 364 L 540 380 524 380 L 508 380 508 396 L 508 412 524 412 L 540 412 540 428 L 540 444 524 444 L 508 444 508 460 L 508 476 524 476 L 540 476 540 492 L 540 508 556 508 L 572 508 572 524 L 572 540 556 540 L 540 540 540 556 L 540 572 556 572 L 572 572 572 588 L 572 604 556 604 L 540 604 540 620 L 540 636 556 636 L 572 636 572 668 L 572 700 556 700 L 540 700 540 684 L 540 668 524 668 L 508 668 508 636 L 508 604 492 604 L 476 604 476 572 L 476 540 460 540 L 444 540 444 524 L 444 508 428 508 L 412 508 412 476 L 412 444 396 444 L 380 444 380 412 L 380 380 364 380 L 348 380 348 348 L 348 316 332 316 L 316 316 316 284 L 316 252 284 252 L 252 252 252 268 L 252 284 268 284 L 284 284 284 332 L 284 380 300 380 L 316 380 316 444 L 316 508 300 508 L 284 508 284 492 L 284 476 268 476 L 252 476 252 492 L 252 508 268 508 L 284 508 284 524 L 284 540 268 540 L 252 540 252 556 L 252 572 268 572 L 284 572 284 588 L 284 604 300 604 L 316 604 316 588 L 316 572 332 572 L 348 572 348 604 L 348 636 364 636 L 380 636 380 588 L 380 540 364 540 L 348 540 348 492 L 348 444 364 444 L 380 444 380 476 L 380 508 396 508 L 412 508 412 556 L 412 604 428 604 L 444 604 444 652 L 444 700 460 700 L 476 700 476 764 L 476 828 460 828 L 444 828 444 796 L 444 764 428 764 L 412 764 412 748 L 412 732 396 732 L 380 732 380 700 L 380 668 364 668 L 348 668 348 700 L 348 732 364 732 L 380 732 380 780 L 380 828 364 828 L 348 828 348 812 L 348 796 332 796 L 316 796 316 780 L 316 764 300 764 L 284 764 284 780 L 284 796 268 796 L 252 796 252 780 L 252 764 236 764 L 220 764 220 748 L 220 732 204 732 L 188 732 188 716 L 188 700 172 700 L 156 700 156 732 L 156 764 172 764 L 188 764 188 796 L 188 828 204 828 L 220 828 220 860 L 220 892 236 892 L 252 892 252 908 L 252 924 268 924 L 284 924 284 940 L 284 956 268 956 L 252 956 252 972 L 252 988 268 988 L 284 988 284 1004 L 284 1020 300 1020 L 316 1020 316 1004 L 316 988 332 988 L 348 988 348 1004 L 348 1020 364 1020 L 380 1020 380 1036 L 380 1052 364 1052 L 348 1052 348 1068 L 348 1084 364 1084 L 380 1084 380 1100 L 380 1116 396 1116 L 412 1116 412 1132 L 412 1148 396 1148 L 380 1148 380 1164 L 380 1180 396 1180 L 412 1180 412 1164 L 412 1148 428 1148 L 444 1148 444 1164 L 444 1180 460 1180 L 476 1180 476 1164 L 476 1148 492 1148 L 508 1148 508 1132 L 508 1116 492 1116 L 476 1116 476 1100 L 476 1084 492 1084 L 508 1084 508 1068 L 508 1052 524 1052 L 540 1052 540 1036 L 540 1020 556 1020 L 572 1020 572 1036 L 572 1052 588 1052 L 604 1052 604 1068 L 604 1084 620 1084 L 636 1084 636 1036 L 636 988 652 988 L 668 988 668 908 L 668 828 684 828 L 700 828 700 860 L 700 892 716 892 L 732 892 732 908 L 732 924 748 924 L 764 924 764 940 L 764 956 748 956 L 732 956 732 972 L 732 988 748 988 L 764 988 764 1004 L 764 1020 780 1020 L 796 1020 796 1036 L 796 1052 780 1052 L 764 1052 764 1068 L 764 1084 780 1084 L 796 1084 796 1068 L 796 1052 812 1052 L 828 1052 828 1036 L 828 1020 812 1020 L 796 1020 796 1004 L 796 988 812 988 L 828 988 828 972 L 828 956 812 956 L 796 956 796 940 L 796 924 812 924 L 828 924 828 908 L 828 892 812 892 L 796 892 796 876 L 796 860 812 860 L 828 860 828 796 L 828 732 844 732 L 860 732 860 716 L 860 700 876 700 L 892 700 892 684 L 892 668 908 668 L 924 668 924 684 L 924 700 940 700 L 956 700 956 716 L 956 732 940 732 L 924 732 924 748 L 924 764 940 764 L 956 764 956 780 L 956 796 940 796 L 924 796 924 812 L 924 828 940 828 L 956 828 956 844 L 956 860 972 860 L 988 860 988 844 L 988 828 1004 828 L 1020 828 1020 812 L 1020 796 1004 796 L 988 796 988 780 L 988 764 1004 764 L 1020 764 1020 748 L 1020 732 1036 732 L 1052 732 1052 716 L 1052 700 1068 700 L 1084 700 1084 716 L 1084 732 1116 732 L 1148 732 1148 700 L 1148 668 1164 668 L 1180 668 1180 636 L 1180 604 1196 604 L 1212 604 1212 572 L 1212 540 1228 540 L 1244 540 1244 524 L 1244 508 1228 508 L 1212 508 1212 492 L 1212 476 1228 476 L 1244 476 1244 460 L 1244 444 1212 444 L 1180 444 1180 476 L 1180 508 1164 508 L 1148 508 1148 524 L 1148 540 1132 540 L 1116 540 1116 572 L 1116 604 1100 604 L 1084 604 1084 636 L 1084 668 1068 668 L 1052 668 1052 652 L 1052 636 1036 636 L 1020 636 1020 620 L 1020 604 1004 604 L 988 604 988 588 L 988 572 1004 572 L 1020 572 1020 556 L 1020 540 1004 540 L 988 540 988 524 L 988 508 1004 508 L 1020 508 1020 476 L 1020 444 1036 444 L 1052 444 1052 348 L 1052 252 1036 252 L 1020 252 1020 204 L 1020 156 1004 156 L 988 156 988 236 L 988 316 972 316 L 956 316 956 332 L 956 348 972 348 L 988 348 988 364 L 988 380 972 380 L 956 380 956 460 L 956 540 972 540 L 988 540 988 556 L 988 572 972 572 L 956 572 956 588 L 956 604 972 604 L 988 604 988 620 L 988 636 972 636 L 956 636 956 652 L 956 668 940 668 L 924 668 924 652 L 924 636 908 636 L 892 636 892 620 L 892 604 876 604 L 860 604 860 556 L 860 508 876 508 L 892 508 892 492 L 892 476 876 476 L 860 476 860 492 L 860 508 844 508 L 828 508 828 524 L 828 540 812 540 L 796 540 796 460 L 796 380 780 380 L 764 380 764 332 L 764 284 748 284 L 732 284 732 236 L 732 188 716 188 L 700 188 700 284 L 700 380 684 380 L 668 380 668 364 L 668 348 652 348 L 636 348 636 300 L 636 252 620 252 L 604 252 604 204 L 604 156 588 156 L 572 156 572 140 L 572 124 556 124 L 540 124 540 140 M 636 156 L 636 188 652 188 L 668 188 668 156 L 668 124 652 124 L 636 124 636 156 M 732 140 L 732 156 748 156 L 764 156 764 140 L 764 124 748 124 L 732 124 732 140 M 764 236 L 764 252 780 252 L 796 252 796 236 L 796 220 780 220 L 764 220 764 236 M 508 268 L 508 284 524 284 L 540 284 540 268 L 540 252 524 252 L 508 252 508 268 M 796 332 L 796 348 812 348 L 828 348 828 332 L 828 316 812 316 L 796 316 796 332 M 572 364 L 572 380 556 380 L 540 380 540 396 L 540 412 556 412 L 572 412 572 428 L 572 444 556 444 L 540 444 540 460 L 540 476 556 476 L 572 476 572 492 L 572 508 588 508 L 604 508 604 492 L 604 476 588 476 L 572 476 572 460 L 572 444 588 444 L 604 444 604 428 L 604 412 588 412 L 572 412 572 396 L 572 380 588 380 L 604 380 604 364 L 604 348 588 348 L 572 348 572 364 M 60 396 L 60 412 76 412 L 92 412 92 396 L 92 380 76 380 L 60 380 60 396 M 1180 396 L 1180 412 1196 412 L 1212 412 1212 396 L 1212 380 1196 380 L 1180 380 1180 396 M 92 492 L 92 508 108 508 L 124 508 124 492 L 124 476 108 476 L 92 476 92 492 M 1084 492 L 1084 508 1100 508 L 1116 508 1116 492 L 1116 476 1100 476 L 1084 476 1084 492 M 124 556 L 124 572 140 572 L 156 572 156 556 L 156 540 140 540 L 124 540 124 556 M 284 556 L 284 572 300 572 L 316 572 316 556 L 316 540 300 540 L 284 540 284 556 M 572 556 L 572 572 588 572 L 604 572 604 556 L 604 540 588 540 L 572 540 572 556 M 28 620 L 28 636 44 636 L 60 636 60 620 L 60 604 44 604 L 28 604 28 620 M 572 620 L 572 636 588 636 L 604 636 604 620 L 604 604 588 604 L 572 604 572 620 M 860 652 L 860 668 876 668 L 892 668 892 652 L 892 636 876 636 L 860 636 860 652 M 988 652 L 988 668 972 668 L 956 668 956 684 L 956 700 972 700 L 988 700 988 716 L 988 732 972 732 L 956 732 956 748 L 956 764 972 764 L 988 764 988 748 L 988 732 1004 732 L 1020 732 1020 716 L 1020 700 1036 700 L 1052 700 1052 684 L 1052 668 1036 668 L 1020 668 1020 652 L 1020 636 1004 636 L 988 636 988 652 M 988 684 L 988 700 1004 700 L 1020 700 1020 684 L 1020 668 1004 668 L 988 668 988 684 M 92 748 L 92 764 108 764 L 124 764 124 748 L 124 732 108 732 L 92 732 92 748 M 668 780 L 668 796 684 796 L 700 796 700 780 L 700 764 684 764 L 668 764 668 780 M 956 812 L 956 828 972 828 L 988 828 988 812 L 988 796 972 796 L 956 796 956 812 M 156 876 L 156 892 172 892 L 188 892 188 876 L 188 860 172 860 L 156 860 156 876 M 732 876 L 732 892 748 892 L 764 892 764 908 L 764 924 780 924 L 796 924 796 908 L 796 892 780 892 L 764 892 764 876 L 764 860 748 860 L 732 860 732 876 M 92 908 L 92 924 108 924 L 124 924 124 908 L 124 892 108 892 L 92 892 92 908 M 476 908 L 476 924 460 924 L 444 924 444 940 L 444 956 428 956 L 412 956 412 940 L 412 924 396 924 L 380 924 380 940 L 380 956 364 956 L 348 956 348 940 L 348 924 332 924 L 316 924 316 940 L 316 956 300 956 L 284 956 284 972 L 284 988 300 988 L 316 988 316 972 L 316 956 332 956 L 348 956 348 972 L 348 988 364 988 L 380 988 380 1004 L 380 1020 396 1020 L 412 1020 412 1036 L 412 1052 396 1052 L 380 1052 380 1068 L 380 1084 396 1084 L 412 1084 412 1100 L 412 1116 428 1116 L 444 1116 444 1132 L 444 1148 460 1148 L 476 1148 476 1132 L 476 1116 460 1116 L 444 1116 444 1100 L 444 1084 460 1084 L 476 1084 476 1068 L 476 1052 492 1052 L 508 1052 508 1036 L 508 1020 524 1020 L 540 1020 540 1004 L 540 988 524 988 L 508 988 508 972 L 508 956 524 956 L 540 956 540 940 L 540 924 524 924 L 508 924 508 908 L 508 892 492 892 L 476 892 476 908 M 476 940 L 476 956 460 956 L 444 956 444 972 L 444 988 428 988 L 412 988 412 972 L 412 956 396 956 L 380 956 380 972 L 380 988 396 988 L 412 988 412 1004 L 412 1020 428 1020 L 444 1020 444 1036 L 444 1052 428 1052 L 412 1052 412 1068 L 412 1084 428 1084 L 444 1084 444 1068 L 444 1052 460 1052 L 476 1052 476 1036 L 476 1020 492 1020 L 508 1020 508 1004 L 508 988 492 988 L 476 988 476 972 L 476 956 492 956 L 508 956 508 940 L 508 924 492 924 L 476 924 476 940 M 1308 940 L 1308 956 1292 956 L 1276 956 1276 972 L 1276 988 1260 988 L 1244 988 1244 1036 L 1244 1084 1228 1084 L 1212 1084 1212 1116 L 1212 1148 1228 1148 L 1244 1148 1244 1212 L 1244 1276 1228 1276 L 1212 1276 1212 1308 L 1212 1340 1228 1340 L 1244 1340 1244 1356 L 1244 1372 1292 1372 L 1340 1372 1340 1388 L 1340 1404 1356 1404 L 1372 1404 1372 1420 L 1372 1436 1436 1436 L 1500 1436 1500 1404 L 1500 1372 1484 1372 L 1468 1372 1468 1340 L 1468 1308 1452 1308 L 1436 1308 1436 1276 L 1436 1244 1452 1244 L 1468 1244 1468 1212 L 1468 1180 1452 1180 L 1436 1180 1436 1212 L 1436 1244 1420 1244 L 1404 1244 1404 1180 L 1404 1116 1388 1116 L 1372 1116 1372 1100 L 1372 1084 1340 1084 L 1308 1084 1308 1068 L 1308 1052 1340 1052 L 1372 1052 1372 1036 L 1372 1020 1356 1020 L 1340 1020 1340 988 L 1340 956 1356 956 L 1372 956 1372 940 L 1372 924 1340 924 L 1308 924 1308 940 M 764 972 L 764 988 780 988 L 796 988 796 972 L 796 956 780 956 L 764 956 764 972 M 444 1004 L 444 1020 460 1020 L 476 1020 476 1004 L 476 988 460 988 L 444 988 444 1004 M 92 1068 L 92 1084 108 1084 L 124 1084 124 1068 L 124 1052 108 1052 L 92 1052 92 1068 M 156 1100 L 156 1116 172 1116 L 188 1116 188 1100 L 188 1084 172 1084 L 156 1084 156 1100 M 1116 1164 L 1116 1180 1132 1180 L 1148 1180 1148 1164 L 1148 1148 1132 1148 L 1116 1148 1116 1164 M 1084 1228 L 1084 1244 1036 1244 L 988 1244 988 1260 L 988 1276 908 1276 L 828 1276 828 1292 L 828 1308 748 1308 L 668 1308 668 1324 L 668 1340 460 1340 L 252 1340 252 1324 L 252 1308 236 1308 L 220 1308 220 1324 L 220 1340 236 1340 L 252 1340 252 1356 L 252 1372 268 1372 L 284 1372 284 1404 L 284 1436 348 1436 L 412 1436 412 1420 L 412 1404 444 1404 L 476 1404 476 1420 L 476 1436 748 1436 L 1020 1436 1020 1404 L 1020 1372 1036 1372 L 1052 1372 1052 1388 L 1052 1404 1084 1404 L 1116 1404 1116 1420 L 1116 1436 1180 1436 L 1244 1436 1244 1420 L 1244 1404 1228 1404 L 1212 1404 1212 1388 L 1212 1372 1196 1372 L 1180 1372 1180 1388 L 1180 1404 1148 1404 L 1116 1404 1116 1388 L 1116 1372 1132 1372 L 1148 1372 1148 1340 L 1148 1308 1164 1308 L 1180 1308 1180 1292 L 1180 1276 1164 1276 L 1148 1276 1148 1292 L 1148 1308 1132 1308 L 1116 1308 1116 1292 L 1116 1276 1100 1276 L 1084 1276 1084 1260 L 1084 1244 1100 1244 L 1116 1244 1116 1228 L 1116 1212 1100 1212 L 1084 1212 1084 1228 M 1052 1292 L 1052 1308 1068 1308 L 1084 1308 1084 1324 L 1084 1340 1100 1340 L 1116 1340 1116 1324 L 1116 1308 1100 1308 L 1084 1308 1084 1292 L 1084 1276 1068 1276 L 1052 1276 1052 1292 M 924 1324 L 924 1340 956 1340 L 988 1340 988 1356 L 988 1372 1004 1372 L 1020 1372 1020 1356 L 1020 1340 1004 1340 L 988 1340 988 1324 L 988 1308 956 1308 L 924 1308 924 1324 M 316 1388 L 316 1404 364 1404 L 412 1404 412 1388 L 412 1372 364 1372 L 316 1372 316 1388" stroke="none" fill="#fbde15" fill-rule="evenodd"/></svg>