<svg xmlns="http://www.w3.org/2000/svg" width="1738" height="484" viewBox="0 0 1738 484" version="1.1"><path d="M 176 66 L 176 132 913 132 L 1650 132 1650 264 L 1650 396 1617 396 L 1584 396 1584 429 L 1584 462 880 462 L 176 462 176 429 L 176 396 154 396 L 132 396 132 407 L 132 418 110 418 L 88 418 88 429 L 88 440 66 440 L 44 440 44 451 L 44 462 22 462 L 0 462 0 473 L 0 484 847 484 L 1694 484 1694 473 L 1694 462 1705 462 L 1716 462 1716 451 L 1716 440 1727 440 L 1738 440 1738 253 L 1738 66 1727 66 L 1716 66 1716 55 L 1716 44 1705 44 L 1694 44 1694 33 L 1694 22 1683 22 L 1672 22 1672 11 L 1672 0 1628 0 L 1584 0 1584 55 L 1584 110 1056 110 L 528 110 528 55 L 528 0 352 0 L 176 0 176 66 M 220 66 L 220 110 242 110 L 264 110 264 99 L 264 88 275 88 L 286 88 286 99 L 286 110 297 110 L 308 110 308 66 L 308 22 297 22 L 286 22 286 44 L 286 66 275 66 L 264 66 264 44 L 264 22 242 22 L 220 22 220 66 M 330 66 L 330 110 352 110 L 374 110 374 99 L 374 88 396 88 L 418 88 418 55 L 418 22 374 22 L 330 22 330 66 M 462 33 L 462 44 473 44 L 484 44 484 33 L 484 22 473 22 L 462 22 462 33 M 374 55 L 374 66 385 66 L 396 66 396 55 L 396 44 385 44 L 374 44 374 55 M 462 99 L 462 110 473 110 L 484 110 484 99 L 484 88 473 88 L 462 88 462 99" stroke="none" fill="#040404" fill-rule="evenodd"/><path d="M 220 66 L 220 110 242 110 L 264 110 264 99 L 264 88 275 88 L 286 88 286 99 L 286 110 297 110 L 308 110 308 66 L 308 22 297 22 L 286 22 286 44 L 286 66 275 66 L 264 66 264 44 L 264 22 242 22 L 220 22 220 66 M 330 66 L 330 110 352 110 L 374 110 374 99 L 374 88 396 88 L 418 88 418 55 L 418 22 374 22 L 330 22 330 66 M 462 33 L 462 44 473 44 L 484 44 484 33 L 484 22 473 22 L 462 22 462 33 M 374 55 L 374 66 385 66 L 396 66 396 55 L 396 44 385 44 L 374 44 374 55 M 462 99 L 462 110 473 110 L 484 110 484 99 L 484 88 473 88 L 462 88 462 99" stroke="none" fill="#f4d36b" fill-rule="evenodd"/></svg>