<svg xmlns="http://www.w3.org/2000/svg" width="892" height="1532" viewBox="0 0 892 1532" version="1.1"><path d="M 62 206 L 62 222 46 222 L 30 222 30 254 L 30 286 62 286 L 94 286 94 254 L 94 222 110 222 L 126 222 126 238 L 126 254 142 254 L 158 254 158 270 L 158 286 142 286 L 126 286 126 302 L 126 318 94 318 L 62 318 62 334 L 62 350 46 350 L 30 350 30 462 L 30 574 46 574 L 62 574 62 590 L 62 606 78 606 L 94 606 94 670 L 94 734 110 734 L 126 734 126 766 L 126 798 110 798 L 94 798 94 782 L 94 766 78 766 L 62 766 62 814 L 62 862 78 862 L 94 862 94 894 L 94 926 110 926 L 126 926 126 894 L 126 862 142 862 L 158 862 158 846 L 158 830 174 830 L 190 830 190 846 L 190 862 238 862 L 286 862 286 878 L 286 894 334 894 L 382 894 382 910 L 382 926 366 926 L 350 926 350 942 L 350 958 334 958 L 318 958 318 990 L 318 1022 334 1022 L 350 1022 350 1006 L 350 990 366 990 L 382 990 382 1006 L 382 1022 398 1022 L 414 1022 414 1006 L 414 990 430 990 L 446 990 446 974 L 446 958 462 958 L 478 958 478 942 L 478 926 446 926 L 414 926 414 910 L 414 894 430 894 L 446 894 446 878 L 446 862 494 862 L 542 862 542 846 L 542 830 590 830 L 638 830 638 814 L 638 798 686 798 L 734 798 734 782 L 734 766 766 766 L 798 766 798 750 L 798 734 814 734 L 830 734 830 702 L 830 670 846 670 L 862 670 862 622 L 862 574 846 574 L 830 574 830 558 L 830 542 798 542 L 766 542 766 526 L 766 510 750 510 L 734 510 734 494 L 734 478 718 478 L 702 478 702 430 L 702 382 686 382 L 670 382 670 366 L 670 350 654 350 L 638 350 638 334 L 638 318 622 318 L 606 318 606 286 L 606 254 574 254 L 542 254 542 238 L 542 222 462 222 L 382 222 382 238 L 382 254 350 254 L 318 254 318 270 L 318 286 302 286 L 286 286 286 302 L 286 318 254 318 L 222 318 222 302 L 222 286 206 286 L 190 286 190 270 L 190 254 174 254 L 158 254 158 222 L 158 190 110 190 L 62 190 62 206 M 414 270 L 414 286 398 286 L 382 286 382 302 L 382 318 398 318 L 414 318 414 302 L 414 286 430 286 L 446 286 446 270 L 446 254 430 254 L 414 254 414 270 M 542 334 L 542 350 526 350 L 510 350 510 366 L 510 382 526 382 L 542 382 542 366 L 542 350 558 350 L 574 350 574 334 L 574 318 558 318 L 542 318 542 334 M 222 366 L 222 382 206 382 L 190 382 190 398 L 190 414 206 414 L 222 414 222 398 L 222 382 238 382 L 254 382 254 398 L 254 414 270 414 L 286 414 286 398 L 286 382 302 382 L 318 382 318 366 L 318 350 302 350 L 286 350 286 366 L 286 382 270 382 L 254 382 254 366 L 254 350 238 350 L 222 350 222 366 M 382 366 L 382 382 398 382 L 414 382 414 398 L 414 414 446 414 L 478 414 478 398 L 478 382 462 382 L 446 382 446 366 L 446 350 414 350 L 382 350 382 366 M 254 462 L 254 478 222 478 L 190 478 190 494 L 190 510 174 510 L 158 510 158 542 L 158 574 142 574 L 126 574 126 558 L 126 542 110 542 L 94 542 94 574 L 94 606 110 606 L 126 606 126 654 L 126 702 142 702 L 158 702 158 734 L 158 766 174 766 L 190 766 190 782 L 190 798 206 798 L 222 798 222 814 L 222 830 254 830 L 286 830 286 846 L 286 862 318 862 L 350 862 350 846 L 350 830 382 830 L 414 830 414 814 L 414 798 430 798 L 446 798 446 782 L 446 766 462 766 L 478 766 478 670 L 478 574 462 574 L 446 574 446 542 L 446 510 430 510 L 414 510 414 494 L 414 478 382 478 L 350 478 350 462 L 350 446 302 446 L 254 446 254 462 M 254 558 L 254 574 238 574 L 222 574 222 638 L 222 702 238 702 L 254 702 254 718 L 254 734 270 734 L 286 734 286 750 L 286 766 318 766 L 350 766 350 750 L 350 734 366 734 L 382 734 382 718 L 382 702 398 702 L 414 702 414 670 L 414 638 398 638 L 382 638 382 606 L 382 574 366 574 L 350 574 350 558 L 350 542 302 542 L 254 542 254 558 M 734 590 L 734 638 750 638 L 766 638 766 654 L 766 670 798 670 L 830 670 830 654 L 830 638 798 638 L 766 638 766 622 L 766 606 782 606 L 798 606 798 590 L 798 574 782 574 L 766 574 766 558 L 766 542 750 542 L 734 542 734 590 M 126 814 L 126 830 142 830 L 158 830 158 814 L 158 798 142 798 L 126 798 126 814 M 126 1166 L 126 1214 142 1214 L 158 1214 158 1230 L 158 1246 142 1246 L 126 1246 126 1262 L 126 1278 142 1278 L 158 1278 158 1294 L 158 1310 174 1310 L 190 1310 190 1326 L 190 1342 238 1342 L 286 1342 286 1326 L 286 1310 318 1310 L 350 1310 350 1294 L 350 1278 366 1278 L 382 1278 382 1230 L 382 1182 366 1182 L 350 1182 350 1150 L 350 1118 318 1118 L 286 1118 286 1134 L 286 1150 238 1150 L 190 1150 190 1134 L 190 1118 158 1118 L 126 1118 126 1166 M 542 1166 L 542 1182 526 1182 L 510 1182 510 1198 L 510 1214 526 1214 L 542 1214 542 1198 L 542 1182 558 1182 L 574 1182 574 1214 L 574 1246 590 1246 L 606 1246 606 1262 L 606 1278 622 1278 L 638 1278 638 1358 L 638 1438 622 1438 L 606 1438 606 1454 L 606 1470 590 1470 L 574 1470 574 1486 L 574 1502 590 1502 L 606 1502 606 1486 L 606 1470 638 1470 L 670 1470 670 1454 L 670 1438 686 1438 L 702 1438 702 1406 L 702 1374 718 1374 L 734 1374 734 1310 L 734 1246 718 1246 L 702 1246 702 1230 L 702 1214 686 1214 L 670 1214 670 1198 L 670 1182 654 1182 L 638 1182 638 1166 L 638 1150 622 1150 L 606 1150 606 1166 L 606 1182 590 1182 L 574 1182 574 1166 L 574 1150 558 1150 L 542 1150 542 1166 M 158 1198 L 158 1214 174 1214 L 190 1214 190 1198 L 190 1182 174 1182 L 158 1182 158 1198 M 606 1198 L 606 1214 622 1214 L 638 1214 638 1198 L 638 1182 622 1182 L 606 1182 606 1198 M 158 1262 L 158 1278 174 1278 L 190 1278 190 1294 L 190 1310 206 1310 L 222 1310 222 1294 L 222 1278 206 1278 L 190 1278 190 1262 L 190 1246 174 1246 L 158 1246 158 1262 M 414 1310 L 414 1374 398 1374 L 382 1374 382 1406 L 382 1438 366 1438 L 350 1438 350 1454 L 350 1470 318 1470 L 286 1470 286 1486 L 286 1502 366 1502 L 446 1502 446 1486 L 446 1470 462 1470 L 478 1470 478 1454 L 478 1438 494 1438 L 510 1438 510 1374 L 510 1310 494 1310 L 478 1310 478 1278 L 478 1246 446 1246 L 414 1246 414 1310" stroke="none" fill="#b97648" fill-rule="evenodd"/><path d="M 446 78 L 446 126 462 126 L 478 126 478 158 L 478 190 494 190 L 510 190 510 174 L 510 158 526 158 L 542 158 542 126 L 542 94 526 94 L 510 94 510 78 L 510 62 494 62 L 478 62 478 46 L 478 30 462 30 L 446 30 446 78 M 766 142 L 766 158 734 158 L 702 158 702 206 L 702 254 686 254 L 670 254 670 270 L 670 286 654 286 L 638 286 638 302 L 638 318 670 318 L 702 318 702 302 L 702 286 718 286 L 734 286 734 270 L 734 254 750 254 L 766 254 766 238 L 766 222 782 222 L 798 222 798 206 L 798 190 814 190 L 830 190 830 174 L 830 158 814 158 L 798 158 798 142 L 798 126 782 126 L 766 126 766 142 M 62 174 L 62 190 78 190 L 94 190 94 174 L 94 158 78 158 L 62 158 62 174 M 766 174 L 766 190 782 190 L 798 190 798 174 L 798 158 782 158 L 766 158 766 174 M 382 206 L 382 222 398 222 L 414 222 414 206 L 414 190 398 190 L 382 190 382 206 M 0 238 L 0 254 15 254 L 30 254 30 238 L 30 222 15 222 L 0 222 0 238 M 94 238 L 94 254 110 254 L 126 254 126 238 L 126 222 110 222 L 94 222 94 238 M 158 238 L 158 254 174 254 L 190 254 190 238 L 190 222 174 222 L 158 222 158 238 M 318 238 L 318 254 334 254 L 350 254 350 238 L 350 222 334 222 L 318 222 318 238 M 574 238 L 574 254 590 254 L 606 254 606 238 L 606 222 590 222 L 574 222 574 238 M 414 270 L 414 286 430 286 L 446 286 446 270 L 446 254 430 254 L 414 254 414 270 M 94 302 L 94 318 110 318 L 126 318 126 302 L 126 286 110 286 L 94 286 94 302 M 254 302 L 254 318 270 318 L 286 318 286 302 L 286 286 270 286 L 254 286 254 302 M 542 334 L 542 350 558 350 L 574 350 574 334 L 574 318 558 318 L 542 318 542 334 M 0 366 L 0 382 15 382 L 30 382 30 366 L 30 350 15 350 L 0 350 0 366 M 414 398 L 414 414 430 414 L 446 414 446 398 L 446 382 430 382 L 414 382 414 398 M 702 398 L 702 414 718 414 L 734 414 734 398 L 734 382 718 382 L 702 382 702 398 M 0 558 L 0 574 15 574 L 30 574 30 558 L 30 542 15 542 L 0 542 0 558 M 94 574 L 94 606 78 606 L 62 606 62 638 L 62 670 78 670 L 94 670 94 638 L 94 606 110 606 L 126 606 126 574 L 126 542 110 542 L 94 542 94 574 M 766 590 L 766 606 782 606 L 798 606 798 590 L 798 574 782 574 L 766 574 766 590 M 798 654 L 798 670 814 670 L 830 670 830 654 L 830 638 814 638 L 798 638 798 654 M 62 750 L 62 766 46 766 L 30 766 30 782 L 30 798 46 798 L 62 798 62 782 L 62 766 78 766 L 94 766 94 750 L 94 734 78 734 L 62 734 62 750 M 62 878 L 62 894 46 894 L 30 894 30 910 L 30 926 62 926 L 94 926 94 894 L 94 862 78 862 L 62 862 62 878 M 446 878 L 446 894 462 894 L 478 894 478 878 L 478 862 462 862 L 446 862 446 878 M 254 910 L 254 926 238 926 L 222 926 222 942 L 222 958 206 958 L 190 958 190 990 L 190 1022 174 1022 L 158 1022 158 1070 L 158 1118 174 1118 L 190 1118 190 1134 L 190 1150 238 1150 L 286 1150 286 1134 L 286 1118 302 1118 L 318 1118 318 1070 L 318 1022 302 1022 L 286 1022 286 990 L 286 958 302 958 L 318 958 318 942 L 318 926 302 926 L 286 926 286 910 L 286 894 270 894 L 254 894 254 910 M 350 1006 L 350 1022 366 1022 L 382 1022 382 1006 L 382 990 366 990 L 350 990 350 1006 M 510 1134 L 510 1150 526 1150 L 542 1150 542 1134 L 542 1118 526 1118 L 510 1118 510 1134 M 606 1134 L 606 1150 622 1150 L 638 1150 638 1166 L 638 1182 654 1182 L 670 1182 670 1166 L 670 1150 654 1150 L 638 1150 638 1134 L 638 1118 622 1118 L 606 1118 606 1134 M 414 1198 L 414 1214 398 1214 L 382 1214 382 1246 L 382 1278 366 1278 L 350 1278 350 1294 L 350 1310 318 1310 L 286 1310 286 1326 L 286 1342 222 1342 L 158 1342 158 1374 L 158 1406 174 1406 L 190 1406 190 1422 L 190 1438 206 1438 L 222 1438 222 1454 L 222 1470 286 1470 L 350 1470 350 1454 L 350 1438 366 1438 L 382 1438 382 1406 L 382 1374 398 1374 L 414 1374 414 1294 L 414 1214 446 1214 L 478 1214 478 1262 L 478 1310 494 1310 L 510 1310 510 1374 L 510 1438 494 1438 L 478 1438 478 1454 L 478 1470 462 1470 L 446 1470 446 1486 L 446 1502 510 1502 L 574 1502 574 1486 L 574 1470 590 1470 L 606 1470 606 1454 L 606 1438 622 1438 L 638 1438 638 1358 L 638 1278 622 1278 L 606 1278 606 1262 L 606 1246 590 1246 L 574 1246 574 1230 L 574 1214 542 1214 L 510 1214 510 1198 L 510 1182 462 1182 L 414 1182 414 1198 M 702 1230 L 702 1246 718 1246 L 734 1246 734 1230 L 734 1214 718 1214 L 702 1214 702 1230" stroke="none" fill="#813418" fill-rule="evenodd"/><path d="M 222 366 L 222 382 206 382 L 190 382 190 398 L 190 414 206 414 L 222 414 222 398 L 222 382 238 382 L 254 382 254 398 L 254 414 270 414 L 286 414 286 398 L 286 382 302 382 L 318 382 318 366 L 318 350 302 350 L 286 350 286 366 L 286 382 270 382 L 254 382 254 366 L 254 350 238 350 L 222 350 222 366 M 254 462 L 254 478 222 478 L 190 478 190 494 L 190 510 174 510 L 158 510 158 542 L 158 574 142 574 L 126 574 126 638 L 126 702 142 702 L 158 702 158 734 L 158 766 174 766 L 190 766 190 782 L 190 798 206 798 L 222 798 222 814 L 222 830 254 830 L 286 830 286 846 L 286 862 318 862 L 350 862 350 846 L 350 830 382 830 L 414 830 414 814 L 414 798 430 798 L 446 798 446 782 L 446 766 462 766 L 478 766 478 670 L 478 574 462 574 L 446 574 446 542 L 446 510 430 510 L 414 510 414 494 L 414 478 382 478 L 350 478 350 462 L 350 446 302 446 L 254 446 254 462 M 254 558 L 254 574 238 574 L 222 574 222 638 L 222 702 238 702 L 254 702 254 718 L 254 734 270 734 L 286 734 286 750 L 286 766 318 766 L 350 766 350 750 L 350 734 366 734 L 382 734 382 718 L 382 702 398 702 L 414 702 414 670 L 414 638 398 638 L 382 638 382 606 L 382 574 366 574 L 350 574 350 558 L 350 542 302 542 L 254 542 254 558 M 510 1166 L 510 1182 526 1182 L 542 1182 542 1198 L 542 1214 558 1214 L 574 1214 574 1198 L 574 1182 590 1182 L 606 1182 606 1198 L 606 1214 622 1214 L 638 1214 638 1198 L 638 1182 622 1182 L 606 1182 606 1166 L 606 1150 590 1150 L 574 1150 574 1166 L 574 1182 558 1182 L 542 1182 542 1166 L 542 1150 526 1150 L 510 1150 510 1166 M 158 1198 L 158 1214 142 1214 L 126 1214 126 1230 L 126 1246 142 1246 L 158 1246 158 1262 L 158 1278 142 1278 L 126 1278 126 1294 L 126 1310 142 1310 L 158 1310 158 1326 L 158 1342 174 1342 L 190 1342 190 1326 L 190 1310 206 1310 L 222 1310 222 1294 L 222 1278 206 1278 L 190 1278 190 1262 L 190 1246 174 1246 L 158 1246 158 1230 L 158 1214 174 1214 L 190 1214 190 1198 L 190 1182 174 1182 L 158 1182 158 1198 M 670 1198 L 670 1214 686 1214 L 702 1214 702 1198 L 702 1182 686 1182 L 670 1182 670 1198 M 158 1294 L 158 1310 174 1310 L 190 1310 190 1294 L 190 1278 174 1278 L 158 1278 158 1294" stroke="none" fill="#f9f8f8" fill-rule="evenodd"/><path d="M 446 15 L 446 30 430 30 L 414 30 414 78 L 414 126 430 126 L 446 126 446 158 L 446 190 430 190 L 414 190 414 206 L 414 222 478 222 L 542 222 542 238 L 542 254 558 254 L 574 254 574 238 L 574 222 558 222 L 542 222 542 206 L 542 190 558 190 L 574 190 574 126 L 574 62 558 62 L 542 62 542 46 L 542 30 526 30 L 510 30 510 15 L 510 0 478 0 L 446 0 446 15 M 446 78 L 446 126 462 126 L 478 126 478 158 L 478 190 494 190 L 510 190 510 174 L 510 158 526 158 L 542 158 542 126 L 542 94 526 94 L 510 94 510 78 L 510 62 494 62 L 478 62 478 46 L 478 30 462 30 L 446 30 446 78 M 702 142 L 702 158 686 158 L 670 158 670 206 L 670 254 638 254 L 606 254 606 286 L 606 318 622 318 L 638 318 638 334 L 638 350 654 350 L 670 350 670 366 L 670 382 686 382 L 702 382 702 350 L 702 318 734 318 L 766 318 766 302 L 766 286 782 286 L 798 286 798 270 L 798 254 814 254 L 830 254 830 222 L 830 190 814 190 L 798 190 798 174 L 798 158 782 158 L 766 158 766 142 L 766 126 734 126 L 702 126 702 142 M 94 174 L 94 190 126 190 L 158 190 158 206 L 158 222 174 222 L 190 222 190 254 L 190 286 206 286 L 222 286 222 302 L 222 318 238 318 L 254 318 254 302 L 254 286 238 286 L 222 286 222 254 L 222 222 206 222 L 190 222 190 206 L 190 190 174 190 L 158 190 158 174 L 158 158 126 158 L 94 158 94 174 M 702 206 L 702 254 686 254 L 670 254 670 270 L 670 286 654 286 L 638 286 638 302 L 638 318 670 318 L 702 318 702 302 L 702 286 718 286 L 734 286 734 270 L 734 254 750 254 L 766 254 766 238 L 766 222 782 222 L 798 222 798 206 L 798 190 782 190 L 766 190 766 174 L 766 158 734 158 L 702 158 702 206 M 30 206 L 30 222 46 222 L 62 222 62 206 L 62 190 46 190 L 30 190 30 206 M 350 238 L 350 254 366 254 L 382 254 382 238 L 382 222 366 222 L 350 222 350 238 M 0 270 L 0 286 15 286 L 30 286 30 318 L 30 350 46 350 L 62 350 62 334 L 62 318 78 318 L 94 318 94 302 L 94 286 126 286 L 158 286 158 270 L 158 254 126 254 L 94 254 94 270 L 94 286 62 286 L 30 286 30 270 L 30 254 15 254 L 0 254 0 270 M 286 270 L 286 286 302 286 L 318 286 318 270 L 318 254 302 254 L 286 254 286 270 M 382 302 L 382 318 398 318 L 414 318 414 302 L 414 286 398 286 L 382 286 382 302 M 382 366 L 382 382 414 382 L 446 382 446 398 L 446 414 462 414 L 478 414 478 398 L 478 382 462 382 L 446 382 446 366 L 446 350 414 350 L 382 350 382 366 M 510 366 L 510 382 526 382 L 542 382 542 366 L 542 350 526 350 L 510 350 510 366 M 0 462 L 0 542 15 542 L 30 542 30 462 L 30 382 15 382 L 0 382 0 462 M 702 446 L 702 478 718 478 L 734 478 734 494 L 734 510 750 510 L 766 510 766 526 L 766 542 750 542 L 734 542 734 590 L 734 638 750 638 L 766 638 766 654 L 766 670 782 670 L 798 670 798 654 L 798 638 782 638 L 766 638 766 590 L 766 542 798 542 L 830 542 830 558 L 830 574 846 574 L 862 574 862 622 L 862 670 846 670 L 830 670 830 702 L 830 734 814 734 L 798 734 798 750 L 798 766 766 766 L 734 766 734 782 L 734 798 686 798 L 638 798 638 814 L 638 830 590 830 L 542 830 542 846 L 542 862 510 862 L 478 862 478 878 L 478 894 446 894 L 414 894 414 910 L 414 926 446 926 L 478 926 478 942 L 478 958 462 958 L 446 958 446 974 L 446 990 430 990 L 414 990 414 1006 L 414 1022 366 1022 L 318 1022 318 990 L 318 958 334 958 L 350 958 350 942 L 350 926 366 926 L 382 926 382 910 L 382 894 334 894 L 286 894 286 878 L 286 862 238 862 L 190 862 190 846 L 190 830 174 830 L 158 830 158 814 L 158 798 142 798 L 126 798 126 766 L 126 734 110 734 L 94 734 94 702 L 94 670 78 670 L 62 670 62 622 L 62 574 46 574 L 30 574 30 622 L 30 670 46 670 L 62 670 62 702 L 62 734 78 734 L 94 734 94 766 L 94 798 110 798 L 126 798 126 814 L 126 830 142 830 L 158 830 158 846 L 158 862 142 862 L 126 862 126 894 L 126 926 94 926 L 62 926 62 942 L 62 958 94 958 L 126 958 126 942 L 126 926 142 926 L 158 926 158 894 L 158 862 174 862 L 190 862 190 910 L 190 958 174 958 L 158 958 158 990 L 158 1022 142 1022 L 126 1022 126 1070 L 126 1118 110 1118 L 94 1118 94 1214 L 94 1310 110 1310 L 126 1310 126 1342 L 126 1374 142 1374 L 158 1374 158 1342 L 158 1310 142 1310 L 126 1310 126 1214 L 126 1118 142 1118 L 158 1118 158 1070 L 158 1022 174 1022 L 190 1022 190 990 L 190 958 206 958 L 222 958 222 942 L 222 926 238 926 L 254 926 254 910 L 254 894 270 894 L 286 894 286 910 L 286 926 302 926 L 318 926 318 942 L 318 958 302 958 L 286 958 286 990 L 286 1022 302 1022 L 318 1022 318 1070 L 318 1118 334 1118 L 350 1118 350 1150 L 350 1182 366 1182 L 382 1182 382 1198 L 382 1214 398 1214 L 414 1214 414 1230 L 414 1246 446 1246 L 478 1246 478 1230 L 478 1214 446 1214 L 414 1214 414 1198 L 414 1182 398 1182 L 382 1182 382 1150 L 382 1118 366 1118 L 350 1118 350 1086 L 350 1054 382 1054 L 414 1054 414 1038 L 414 1022 430 1022 L 446 1022 446 1006 L 446 990 462 990 L 478 990 478 974 L 478 958 494 958 L 510 958 510 926 L 510 894 526 894 L 542 894 542 878 L 542 862 590 862 L 638 862 638 846 L 638 830 686 830 L 734 830 734 814 L 734 798 766 798 L 798 798 798 782 L 798 766 814 766 L 830 766 830 750 L 830 734 846 734 L 862 734 862 702 L 862 670 877 670 L 892 670 892 622 L 892 574 877 574 L 862 574 862 558 L 862 542 846 542 L 830 542 830 526 L 830 510 798 510 L 766 510 766 494 L 766 478 750 478 L 734 478 734 446 L 734 414 718 414 L 702 414 702 446 M 30 846 L 30 894 46 894 L 62 894 62 846 L 62 798 46 798 L 30 798 30 846 M 542 1134 L 542 1150 574 1150 L 606 1150 606 1134 L 606 1118 574 1118 L 542 1118 542 1134 M 446 1166 L 446 1182 478 1182 L 510 1182 510 1166 L 510 1150 478 1150 L 446 1150 446 1166 M 670 1166 L 670 1182 686 1182 L 702 1182 702 1198 L 702 1214 718 1214 L 734 1214 734 1198 L 734 1182 718 1182 L 702 1182 702 1166 L 702 1150 686 1150 L 670 1150 670 1166 M 734 1310 L 734 1374 718 1374 L 702 1374 702 1406 L 702 1438 686 1438 L 670 1438 670 1454 L 670 1470 638 1470 L 606 1470 606 1486 L 606 1502 446 1502 L 286 1502 286 1486 L 286 1470 254 1470 L 222 1470 222 1454 L 222 1438 206 1438 L 190 1438 190 1422 L 190 1406 174 1406 L 158 1406 158 1422 L 158 1438 174 1438 L 190 1438 190 1454 L 190 1470 206 1470 L 222 1470 222 1486 L 222 1502 254 1502 L 286 1502 286 1517 L 286 1532 446 1532 L 606 1532 606 1517 L 606 1502 638 1502 L 670 1502 670 1486 L 670 1470 686 1470 L 702 1470 702 1454 L 702 1438 718 1438 L 734 1438 734 1406 L 734 1374 750 1374 L 766 1374 766 1310 L 766 1246 750 1246 L 734 1246 734 1310" stroke="none" fill="#040404" fill-rule="evenodd"/></svg>