<svg xmlns="http://www.w3.org/2000/svg" width="79" height="112" viewBox="0 0 79 112" version="1.1"><path d="M 1 56 L 1 111 15 111 L 29 111 29 104.535 C 29 96.778, 30.144 95.785, 38.812 96.014 C 41.940 96.096, 45.043 96.127, 45.706 96.082 C 46.500 96.028, 47.013 93.522, 47.206 88.750 L 47.500 81.500 55 81 L 62.500 80.500 63 72 L 63.500 63.500 70.250 63.204 L 77 62.909 77 56 L 77 49.091 70.250 48.796 L 63.500 48.500 63 41 L 62.500 33.500 55 33 L 47.500 32.500 47 24 L 46.500 15.500 38 15 L 29.500 14.500 29.204 7.750 L 28.909 1 14.954 1 L 1 1 1 56" stroke="none" fill="#070707" fill-rule="evenodd"/></svg>