<svg xmlns="http://www.w3.org/2000/svg" width="1497" height="1497" viewBox="0 0 1497 1497" version="1.1"><path d="M 42 21 L 42 28 748 28 L 1454 28 1454 21 L 1454 14 748 14 L 42 14 42 21 M 28.667 29.667 C 28.300 30.033, 28 33.858, 28 38.167 L 28 46 34.500 46 L 41 46 41 38.107 C 41 31.832, 40.676 30.090, 39.418 29.607 C 37.289 28.790, 29.500 28.833, 28.667 29.667 M 1454.667 30.667 C 1454.300 31.033, 1454 34.633, 1454 38.667 L 1454 46 1461 46 L 1468 46 1468 38 L 1468 30 1461.667 30 C 1458.183 30, 1455.033 30.300, 1454.667 30.667 M 14.250 47.662 C 13.252 48.065, 13 189.186, 13 748.583 L 13 1449 21.064 1449 L 29.128 1449 28.617 1201.750 C 28.335 1065.762, 27.699 751.100, 27.202 502.500 C 26.706 253.900, 25.959 49.712, 25.543 48.750 C 24.970 47.425, 23.660 47.019, 20.143 47.079 C 17.589 47.122, 14.938 47.385, 14.250 47.662 M 63.750 47.739 L 58 48.100 58 54.914 L 58 61.728 53.360 62.364 C 50.809 62.714, 47.209 63, 45.360 63 L 42 63 42 431.250 C 42 633.788, 42.300 942.263, 42.666 1116.750 L 43.332 1434 47.916 1434.014 C 56.346 1434.039, 56.733 1434.360, 57.497 1441.970 L 58.178 1448.755 212.339 1449.440 C 297.128 1449.816, 607.475 1449.984, 902 1449.812 L 1437.500 1449.500 1438.207 1443.093 C 1438.595 1439.570, 1439.350 1436.250, 1439.885 1435.715 C 1440.419 1435.181, 1444.039 1434.516, 1447.928 1434.237 L 1455 1433.731 1454.853 1064.116 C 1454.772 860.827, 1454.435 552.525, 1454.103 379 L 1453.500 63.500 1447.131 62.798 C 1443.628 62.411, 1440.498 61.831, 1440.176 61.509 C 1439.854 61.187, 1439.409 58.089, 1439.189 54.624 L 1438.788 48.325 1384.729 47.662 C 1330.243 46.995, 74.448 47.068, 63.750 47.739 M 1469.296 48.634 C 1468.274 51.246, 1468.350 747.348, 1469.414 1130.250 L 1470.300 1449 1477.026 1449 L 1483.752 1449 1484.456 1035.750 C 1485.262 563.088, 1484.874 49.541, 1483.712 48.378 C 1483.278 47.945, 1480.021 47.405, 1476.475 47.179 C 1470.887 46.823, 1469.929 47.018, 1469.296 48.634 M 392.866 77.668 L 73.232 78.003 72.630 80.252 C 72.298 81.488, 72.021 84.804, 72.014 87.621 L 72 92.742 65.157 93.416 L 58.313 94.090 57.586 747.674 C 57.146 1143.138, 57.220 1401.620, 57.774 1402.174 C 58.278 1402.678, 61.862 1403.356, 65.737 1403.681 L 72.784 1404.272 73.194 1410.704 C 73.459 1414.865, 74.115 1417.461, 75.052 1418.053 C 77.062 1419.325, 1422.496 1419.691, 1423.881 1418.421 C 1424.090 1418.229, 1424.485 1414.958, 1424.757 1411.152 L 1425.252 1404.234 1431.960 1403.573 L 1438.668 1402.912 1439.334 1063.789 C 1440.273 585.755, 1440.167 95.222, 1439.126 94.578 C 1438.645 94.280, 1435.093 93.744, 1431.234 93.385 L 1424.216 92.733 1423.806 86.298 C 1423.541 82.135, 1422.885 79.540, 1421.948 78.947 C 1421.082 78.399, 1329.411 78.024, 1193.916 78.015 C 1069.294 78.007, 909.994 77.850, 839.916 77.666 C 769.837 77.483, 568.665 77.484, 392.866 77.668 M 29.667 1451.667 C 29.300 1452.033, 29 1455.593, 29 1459.578 L 29 1466.822 35.250 1467.201 C 38.688 1467.409, 41.611 1467.526, 41.746 1467.461 C 42.531 1467.081, 43.146 1457.589, 42.580 1454.576 L 41.909 1451 36.121 1451 C 32.938 1451, 30.033 1451.300, 29.667 1451.667 M 1456 1459 L 1456 1467 1462.500 1467 L 1469 1467 1469 1459 L 1469 1451 1462.500 1451 L 1456 1451 1456 1459 M 43 1476 L 43 1483 749 1483 L 1455 1483 1455 1476 L 1455 1469 749 1469 L 43 1469 43 1476" stroke="none" fill="#0c0c0c" fill-rule="evenodd"/></svg>